<?xml version="1.0" encoding="UTF-8"?>
<!DOCTYPE svg PUBLIC "-//W3C//DTD SVG 1.1//EN" "http://www.w3.org/Graphics/SVG/1.1/DTD/svg11.dtd">
<svg xmlns="http://www.w3.org/2000/svg" version="1.1" width="124px" height="118px" style="shape-rendering:geometricPrecision; text-rendering:geometricPrecision; image-rendering:optimizeQuality; fill-rule:evenodd; clip-rule:evenodd" xmlns:xlink="http://www.w3.org/1999/xlink">
<g><path style="opacity:0.927" fill="#2e78f6" d="M 19.5,19.5 C 33.34,17.9153 41.6734,23.9153 44.5,37.5C 40.3797,53.5602 30.713,58.3935 15.5,52C 8.55743,45.8184 6.7241,38.3184 10,29.5C 12.7456,25.5921 15.9122,22.2588 19.5,19.5 Z"/></g>
<g><path style="opacity:0.928" fill="#aac9f8" d="M 88.5,19.5 C 104.585,18.1131 112.418,25.4464 112,41.5C 107.066,54.2151 98.2331,58.0485 85.5,53C 76.3881,46.0121 74.5548,37.5121 80,27.5C 82.7757,24.551 85.609,21.8844 88.5,19.5 Z"/></g>
<g><path style="opacity:0.95" fill="#2e79f6" d="M 57.5,94.5 C 57.5,96.5 57.5,98.5 57.5,100.5C 59.5,100.5 61.5,100.5 63.5,100.5C 63.5,103.5 63.5,106.5 63.5,109.5C 54.8402,110.002 46.8402,108.002 39.5,103.5C 38.5067,108.12 38.1734,112.786 38.5,117.5C 25.5,117.5 12.5,117.5 -0.5,117.5C -0.5,109.5 -0.5,101.5 -0.5,93.5C 0.890924,84.9588 3.39092,76.6255 7,68.5C 13.5412,58.6139 21.8746,56.6139 32,62.5C 34.6142,70.3471 37.6142,78.0137 41,85.5C 45.7884,89.9745 51.2884,92.9745 57.5,94.5 Z"/></g>
<g><path style="opacity:0.952" fill="#aac8f8" d="M 122.5,117.5 C 109.167,117.5 95.8333,117.5 82.5,117.5C 82.6659,112.489 82.4993,107.489 82,102.5C 76.3931,106.313 70.2264,108.647 63.5,109.5C 63.5,106.5 63.5,103.5 63.5,100.5C 61.5,100.5 59.5,100.5 57.5,100.5C 57.5,98.5 57.5,96.5 57.5,94.5C 74.5653,93.6038 84.0653,84.6038 86,67.5C 90.2189,59.3128 96.7189,56.8128 105.5,60C 111.611,63.4487 115.444,68.6153 117,75.5C 121.239,89.1927 123.072,103.193 122.5,117.5 Z"/></g>
</svg>
