<svg width="197" height="183" viewBox="0 0 197 183" fill="none" xmlns="http://www.w3.org/2000/svg">
<mask id="mask0_16_8" style="mask-type:alpha" maskUnits="userSpaceOnUse" x="0" y="0" width="197" height="183">
<path d="M158.761 182.026C170.668 170.151 180.111 156.041 186.548 140.506C192.984 124.97 196.287 108.316 196.267 91.5C196.287 74.684 192.984 58.0297 186.548 42.4943C180.111 26.9588 170.668 12.8486 158.761 0.974365L148.097 11.6236C158.603 22.1009 166.935 34.5513 172.614 48.2592C178.294 61.9671 181.208 76.6622 181.189 91.5C181.189 122.694 168.537 150.937 148.097 171.376L158.761 182.026Z" fill="black"/>
<path d="M137.448 160.727C146.553 151.646 153.773 140.856 158.695 128.975C163.617 117.095 166.142 104.359 166.127 91.5C166.142 78.6406 163.617 65.9049 158.695 54.0246C153.773 42.1443 146.553 31.3537 137.448 22.2727L126.798 32.9219C134.503 40.606 140.612 49.7368 144.777 59.7895C148.941 69.8423 151.078 80.6189 151.064 91.5C151.082 102.383 148.948 113.161 144.786 123.217C140.625 133.272 134.517 142.406 126.813 150.093L137.448 160.727Z" fill="black"/>
<path d="M116.149 139.429C122.453 133.142 127.451 125.671 130.858 117.446C134.265 109.22 136.013 100.403 136.002 91.5C136.013 82.5971 134.265 73.7797 130.858 65.5544C127.451 57.3292 122.453 49.8583 116.149 43.5711L105.5 54.2203C110.403 59.1106 114.29 64.9216 116.94 71.3194C119.59 77.7171 120.949 84.5753 120.939 91.5C120.948 98.4245 119.588 105.283 116.939 111.68C114.289 118.078 110.402 123.889 105.5 128.78L116.149 139.429Z" fill="black"/>
<path fill-rule="evenodd" clip-rule="evenodd" d="M86.1748 24.4719C87.4508 25.0865 88.5276 26.0486 89.2816 27.2475C90.0356 28.4464 90.4362 29.8337 90.4375 31.25V151.75C90.4355 153.167 90.0337 154.555 89.2782 155.754C88.5228 156.953 87.4444 157.915 86.1669 158.528C84.8894 159.142 83.4648 159.382 82.0567 159.222C80.6486 159.063 79.3142 158.509 78.2068 157.624L42.6141 129.156H7.59375C5.59634 129.156 3.68074 128.363 2.26835 126.95C0.855968 125.538 0.0625 123.622 0.0625 121.625V61.375C0.0625 59.3776 0.855968 57.462 2.26835 56.0496C3.68074 54.6372 5.59634 53.8437 7.59375 53.8437H42.6141L78.2068 25.3756C79.3149 24.4898 80.6508 23.9349 82.0605 23.775C83.4702 23.6152 84.8964 23.8567 86.1748 24.4719Z" fill="black"/>
</mask>
<g mask="url(#mask0_16_8)">
<rect x="-151" y="-76" width="444" height="413" fill="#0271C9"/>
</g>
</svg>
